<?xml version="1.0" encoding="UTF-8"?>
<svg width="520px" height="74px" viewBox="0 0 520 74" version="1.1" xmlns="http://www.w3.org/2000/svg" xmlns:xlink="http://www.w3.org/1999/xlink">
    <!-- Generator: Sketch 55.2 (78181) - https://sketchapp.com -->
    <title>Blockchain Bank</title>
    <desc>Created with Sketch.</desc>
    <g id="Blockchain-Bank" stroke="none" stroke-width="1" fill="none" fill-rule="evenodd">
        <path d="M3.04,8.78 L21.52,8.78 C32.32,8.78 38.64,15.18 38.64,24.14 C38.64,30.22 35.12,34.54 30.16,36.38 C36.64,37.98 40.4,43.74 40.4,50.06 C40.4,59.02 33.28,65.5 22.88,65.5 L3.04,65.5 L3.04,8.78 Z M10.88,33.58 L20.64,33.58 C26.96,33.58 30.72,29.82 30.72,24.54 C30.72,19.18 26.8,15.66 20.32,15.66 L10.88,15.66 L10.88,33.58 Z M10.88,58.62 L21.76,58.62 C28.08,58.62 32.4,55.1 32.4,49.58 C32.4,44.14 28.96,40.3 22.08,40.3 L10.88,40.3 L10.88,58.62 Z M53.92,65.5 L46.4,65.5 L46.4,7.58 L53.92,7.58 L53.92,65.5 Z M79.2,59.98 C85.6,59.98 91.2,55.18 91.2,46.22 C91.2,37.34 85.6,32.54 79.2,32.54 C72.8,32.54 67.2,37.34 67.2,46.22 C67.2,55.18 72.8,59.98 79.2,59.98 Z M79.2,25.82 C90.72,25.82 98.88,34.54 98.88,46.22 C98.88,57.98 90.72,66.7 79.2,66.7 C67.68,66.7 59.52,57.98 59.52,46.22 C59.52,34.54 67.68,25.82 79.2,25.82 Z M120.64,32.78 C114.56,32.78 108.96,37.26 108.96,46.22 C108.96,55.02 114.48,59.74 120.72,59.74 C127.92,59.74 130.56,54.86 131.44,51.82 L138.08,54.7 C136.24,60.22 130.72,66.7 120.72,66.7 C109.52,66.7 101.28,57.9 101.28,46.22 C101.28,34.22 109.68,25.82 120.64,25.82 C130.88,25.82 136.16,32.22 137.76,38.06 L130.96,40.94 C130,37.18 127.2,32.78 120.64,32.78 Z M177.36,27.02 L160.96,43.26 L177.68,65.5 L168.24,65.5 L155.68,48.54 L150.32,53.9 L150.32,65.5 L142.88,65.5 L142.88,7.58 L150.32,7.58 L150.32,44.06 L166.96,27.02 L177.36,27.02 Z M195.04,32.78 C188.96,32.78 183.36,37.26 183.36,46.22 C183.36,55.02 188.88,59.74 195.12,59.74 C202.32,59.74 204.96,54.86 205.84,51.82 L212.48,54.7 C210.64,60.22 205.12,66.7 195.12,66.7 C183.92,66.7 175.68,57.9 175.68,46.22 C175.68,34.22 184.08,25.82 195.04,25.82 C205.28,25.82 210.56,32.22 212.16,38.06 L205.36,40.94 C204.4,37.18 201.6,32.78 195.04,32.78 Z M224.8,42.86 L224.8,65.5 L217.28,65.5 L217.28,7.58 L224.8,7.58 L224.8,31.5 C227.6,27.42 232.08,25.9 236.48,25.9 C245.68,25.9 250.24,32.54 250.24,41.1 L250.24,65.5 L242.72,65.5 L242.72,42.38 C242.72,37.02 240.48,32.7 233.76,32.7 C228,32.7 224.96,37.18 224.8,42.86 Z M255.84,55.18 C255.84,48.3 260.88,44.46 267.52,43.5 L277.92,41.98 C280.24,41.66 280.88,40.46 280.88,39.1 C280.88,35.34 278.4,32.22 272.56,32.22 C267.28,32.22 264.32,35.5 263.84,39.98 L256.64,38.3 C257.44,30.94 264.08,25.82 272.4,25.82 C283.92,25.82 288.4,32.38 288.4,39.9 L288.4,59.18 C288.4,62.54 288.72,64.54 288.88,65.5 L281.52,65.5 C281.36,64.54 281.12,63.1 281.12,60.3 C279.44,63.02 275.6,66.7 268.72,66.7 C260.88,66.7 255.84,61.26 255.84,55.18 Z M269.76,60.38 C275.92,60.38 280.88,57.42 280.88,49.02 L280.88,47.26 L269.12,49.02 C265.92,49.5 263.52,51.34 263.52,54.78 C263.52,57.66 265.92,60.38 269.76,60.38 Z M303.52,65.5 L296.08,65.5 L296.08,27.02 L303.52,27.02 L303.52,65.5 Z M294.4,12.46 C294.4,9.42 296.8,7.02 299.76,7.02 C302.8,7.02 305.2,9.42 305.2,12.46 C305.2,15.42 302.8,17.82 299.76,17.82 C296.8,17.82 294.4,15.42 294.4,12.46 Z M319.84,43.26 L319.84,65.5 L312.32,65.5 L312.32,27.02 L319.68,27.02 L319.68,32.54 C322.48,27.74 327.04,25.9 331.52,25.9 C340.72,25.9 345.28,32.54 345.28,41.1 L345.28,65.5 L337.76,65.5 L337.76,42.38 C337.76,37.02 335.52,32.7 328.8,32.7 C322.88,32.7 319.84,37.42 319.84,43.26 Z M353.36,8.78 L373.76,8.78 C384.8,8.78 391.04,15.26 391.04,24.06 C391.04,29.9 387.52,34.62 382.8,36.22 C388.32,37.58 392.8,42.62 392.8,49.66 C392.8,58.86 385.92,65.5 375.28,65.5 L353.36,65.5 L353.36,8.78 Z M364.24,32.22 L372.08,32.22 C377.12,32.22 380.16,29.42 380.16,25.1 C380.16,20.78 377.36,18.06 372,18.06 L364.24,18.06 L364.24,32.22 Z M364.24,56.3 L373.2,56.3 C378.56,56.3 381.76,53.5 381.76,48.94 C381.76,44.46 378.88,41.34 373.36,41.34 L364.24,41.34 L364.24,56.3 Z M394.88,54.78 C394.88,47.74 400.08,43.82 406.64,42.86 L416.32,41.42 C418.56,41.1 419.28,39.98 419.28,38.62 C419.28,35.82 417.12,33.5 412.64,33.5 C408,33.5 405.44,36.46 405.12,39.9 L395.68,37.9 C396.32,31.74 402,24.94 412.56,24.94 C425.04,24.94 429.68,31.98 429.68,39.9 L429.68,59.26 C429.68,61.34 429.92,64.14 430.16,65.5 L420.4,65.5 C420.16,64.46 420,62.3 420,60.78 C418,63.9 414.24,66.62 408.4,66.62 C400,66.62 394.88,60.94 394.88,54.78 Z M410.64,58.7 C415.12,58.7 419.28,56.54 419.28,49.58 L419.28,47.82 L410.4,49.18 C407.68,49.58 405.52,51.1 405.52,54.14 C405.52,56.46 407.2,58.7 410.64,58.7 Z M447.04,42.86 L447.04,65.5 L436.4,65.5 L436.4,26.14 L446.72,26.14 L446.72,31.02 C449.12,26.94 453.84,25.1 458.08,25.1 C467.84,25.1 472.32,32.06 472.32,40.7 L472.32,65.5 L461.68,65.5 L461.68,42.54 C461.68,38.14 459.52,34.7 454.4,34.7 C449.76,34.7 447.04,38.3 447.04,42.86 Z M517.28,26.14 L501.52,42.7 L517.6,65.5 L504.56,65.5 L494.16,50.46 L489.76,55.1 L489.76,65.5 L479.12,65.5 L479.12,7.58 L489.76,7.58 L489.76,40.78 L503.36,26.14 L517.28,26.14 Z" id="BlockchainBank" fill="#121212" fill-rule="nonzero"></path>
    </g>
</svg>